<?xml version="1.0" encoding="utf-8"?>
<svg xmlns="http://www.w3.org/2000/svg" xmlns:xlink="http://www.w3.org/1999/xlink" style="margin: auto; background: none; display: block; shape-rendering: auto; fill: currentColor;" fill="currentColor" width="200px" height="200px" viewBox="0 0 100 100" preserveAspectRatio="xMidYMid">
<g transform="translate(50 50)">
<g>
<animateTransform attributeName="transform" type="rotate" values="0;45" keyTimes="0;1" dur="0.25s" repeatCount="indefinite"></animateTransform><path d="M27.874719729532707 -8 L41.87471972953271 -8 L41.87471972953271 8 L27.874719729532707 8 A29 29 0 0 1 25.367257593919405 14.053549094934645 L25.367257593919405 14.053549094934645 L35.26675253053107 23.95304403154631 L23.953044031546312 35.266752530531065 L14.053549094934647 25.3672575939194 A29 29 0 0 1 8 27.874719729532707 L8 27.874719729532707 L8.000000000000002 41.87471972953271 L-7.999999999999996 41.87471972953271 L-7.9999999999999964 27.874719729532707 A29 29 0 0 1 -14.053549094934636 25.36725759391941 L-14.053549094934636 25.36725759391941 L-23.9530440315463 35.26675253053107 L-35.266752530531065 23.953044031546305 L-25.367257593919405 14.053549094934642 A29 29 0 0 1 -27.874719729532707 8.000000000000007 L-27.874719729532707 8.000000000000007 L-41.87471972953271 8.000000000000009 L-41.87471972953271 -8 L-27.874719729532707 -8.000000000000002 A29 29 0 0 1 -25.36725759391941 -14.053549094934635 L-25.36725759391941 -14.053549094934635 L-35.26675253053107 -23.9530440315463 L-23.95304403154631 -35.266752530531065 L-14.053549094934644 -25.367257593919405 A29 29 0 0 1 -8.000000000000009 -27.874719729532707 L-8.000000000000009 -27.874719729532707 L-8.000000000000012 -41.87471972953271 L7.999999999999996 -41.87471972953271 L7.999999999999998 -27.874719729532707 A29 29 0 0 1 14.053549094934633 -25.36725759391941 L14.053549094934633 -25.36725759391941 L23.9530440315463 -35.26675253053108 L35.266752530531065 -23.953044031546312 L25.3672575939194 -14.053549094934645 A29 29 0 0 1 27.874719729532707 -8.00000000000001 M0 -21A21 21 0 1 0 0 21 A21 21 0 1 0 0 -21" fill="currentColor"></path></g></g></svg>